<svg width="110" height="45" viewBox="0 0 110 45" xmlns="http://www.w3.org/2000/svg" xmlns:xlink="http://www.w3.org/1999/xlink"><title>Group</title><defs><path id="a" d="M.02 31.68V.13H45.59V31.68H.02z"/><path id="c" d="M23.706 35.634H.114V.168h23.592z"/></defs><g fill="none" fill-rule="evenodd"><mask id="b" fill="#fff"><use xlink:href="#a"/></mask><path d="M42.355.132c-1.788 0-3.236 1.45-3.236 3.236 0 1.787 1.447 3.236 3.235 3.236 1.787 0 3.236-1.45 3.236-3.236 0-1.787-1.448-3.236-3.235-3.236M11.853 26.53c-3.545 0-6.02-2.634-6.02-6.406 0-3.71 2.53-6.405 6.02-6.405 3.514 0 6.064 2.693 6.064 6.404 0 3.772-2.493 6.406-6.064 6.406zM11.81 8.57C4.968 8.57 0 13.43 0 20.123 0 26.82 4.572 31.68 10.872 31.68c2.658 0 5.184-.866 7.045-2.368v1.983h5.704v-11.17c0-6.696-4.965-11.556-11.81-11.556z" fill="#FFF200" mask="url(#b)"/><path fill="#FFF200" d="M39.503 31.295h5.704V8.953h-5.704"/><g transform="translate(48.1 8.745)"><mask id="d" fill="#fff"><use xlink:href="#c"/></mask><path d="M11.91.168C5.28.168.412 4.726.113 11.096h5.842c.27-3.384 2.707-5.78 5.996-5.78 3.313 0 5.768 2.396 6.04 5.78h5.714C23.406 4.726 18.538.168 11.91.168M17.696 13.918c-.087.294-.192.576-.313.844l-.03.067c-.016.032-.033.064-.048.097-.984 1.975-2.917 3.2-5.353 3.2-2.806 0-4.942-1.65-5.71-4.21H.25c.87 5.558 5.103 9.4 10.704 9.4 2.657 0 5.183-.864 7.045-2.366v2.516s-.035 1.556-.2 2.36c-.66 2.792-2.925 4.68-5.865 4.68-2.933 0-5.19-1.905-5.834-4.716H.194c.763 5.807 5.446 9.865 11.7 9.865 6.147 0 10.775-3.924 11.653-9.575h.003l.02-.148c.006-.047.015-.094.02-.142h-.006c.045-.436.115-1.408.12-3.2v.343-9.015h-6.008" fill="#FFF200" mask="url(#d)"/></g><path d="M108.61 25.967c-1.41.087-2.45-.174-3.094-.78-.63-.59-.95-1.58-.95-2.942V12.65h3.85V7.43h-3.85V2.336h-5.693v19.91c0 3.076.978 5.572 2.828 7.218 1.493 1.328 3.443 2.013 5.7 2.013.452 0 .92-.028 1.395-.083l.913-.107v-5.388l-1.097.07M32.798 25.338c-.465-.444-.7-1.207-.7-2.267V.38h-5.796v22.805c0 2.806.9 5.092 2.606 6.61 1.375 1.226 3.205 1.873 5.29 1.873.417 0 .846-.025 1.277-.075l1.16-.134v-5.565l-1.372.064c-1.148.054-1.976-.156-2.465-.622M86.455 8.215c-2.046 0-3.94.65-5.49 1.75V.593h-5.85v30.702h5.875V17.967c0-2.514 1.58-4.552 4.553-4.552 2.513 0 4.552 2.038 4.552 4.552l.006 13.328h5.852V17.71c0-.383-.025-.76-.07-1.132-.56-4.71-4.565-8.363-9.427-8.363" fill="#FFF200"/></g></svg>